<svg width="1058" height="785" viewBox="0 0 1058 785" fill="none" xmlns="http://www.w3.org/2000/svg">
<g id="undraw_Ride_a_bicycle_2yok 1">
<path id="Vector" d="M192.844 114.553C187.363 121.153 185.252 130.431 182.892 139.155C163.887 209.455 117.056 266.001 63.7231 306.392C41.1376 323.5 13.641 346.444 18.5822 377.119C21.2428 393.593 32.9157 405.72 41.5878 419.137C59.7821 447.231 65.6836 485.418 57.0115 519.05C47.1491 557.316 19.5824 593.023 28.1145 631.716C33.3758 655.533 51.2401 672.483 68.4142 687.051C95.2073 709.764 122.854 731.04 151.354 750.882C170.459 764.18 190.784 777.12 213.049 778.807C232.654 780.296 251.858 772.903 270.473 765.609C286.737 759.227 303.411 752.588 316.544 739.806C325.116 731.46 331.948 720.693 341.47 713.865C363.835 697.828 392.562 707.991 418.209 714.858C478.723 730.974 543.489 725.089 601.073 698.245C689.404 657.061 756.73 570.575 843.131 524.171C880.28 504.214 920.69 491.829 955.088 466.126C974.467 451.492 991.122 433.611 1004.3 413.291C1030.31 373.487 1044.37 322.736 1040.31 273.057C1036.25 223.378 1013.49 175.506 977.753 147.461C939.494 117.441 891.173 111.834 847.642 93.8124C802.691 75.1953 762.702 43.2007 718.181 23.224C682.156 7.10431 642.95 -0.808789 603.441 0.06528C563.932 0.939349 525.121 10.5784 489.856 28.2752C441.404 52.5887 392.292 109.314 338.329 113.62C299.88 116.598 222.871 78.4106 192.844 114.553Z" fill="url(#paint0_linear)"/>
<g id="man_bike">
<path id="Vector_2" d="M387 554.303L344.293 512.159L330.947 525.683L373.654 567.827L387 554.303Z" fill="#4A4956"/>
<path id="Vector_3" d="M354.48 491.99C354.48 491.99 379.27 478.91 388.85 470.49C394.617 465.444 400.818 460.917 407.38 456.96L438.48 438.03L503.48 433.03L506.48 444.03C506.48 444.03 511.48 460.03 461.48 474.03C411.48 488.03 386.48 510.03 386.48 510.03C386.48 510.03 354.48 520.99 354.48 491.99Z" fill="#DB8B8B"/>
<path id="Vector_4" d="M258.54 615.49C258.54 615.49 426.62 571.49 440.22 588.28C453.82 605.07 468.23 627.49 425.85 635.49C383.47 643.49 255.37 621.88 255.37 621.88L258.54 615.49Z" fill="#5A5968"/>
<path id="Vector_5" opacity="0.05" d="M505.54 449.55C502.76 455.44 493.17 465.12 461.48 473.99C420.87 485.36 396.75 501.99 389.13 507.86C387.36 509.21 386.48 509.99 386.48 509.99C386.48 509.99 354.48 520.99 354.48 491.99C354.48 491.99 356.03 491.17 358.48 489.8C365.91 485.73 381.64 476.8 388.82 470.45C394.586 465.403 400.787 460.875 407.35 456.92L438.45 437.99L450.03 437.1L503.45 432.99L506.45 443.99C506.45 443.99 507.15 446.14 505.54 449.55Z" fill="black"/>
<path id="Vector_6" opacity="0.1" d="M389.13 507.86C387.36 509.21 386.48 509.99 386.48 509.99C386.48 509.99 354.48 520.99 354.48 491.99C354.48 491.99 356.03 491.17 358.48 489.8C360.955 493.831 364.423 497.16 368.551 499.469C372.679 501.778 377.33 502.99 382.06 502.99H385.45L389.13 507.86Z" fill="black"/>
<path id="Vector_7" d="M354.98 485.49L328.48 502.99L406.08 567.99C406.08 567.99 417.48 560.99 411.48 552.99C411.48 552.99 391.48 535.99 390.48 511.99L384.48 503.99H381.09C375.358 503.991 369.767 502.211 365.089 498.897C360.412 495.583 356.88 490.898 354.98 485.49Z" fill="#ABB1D1"/>
<path id="Vector_8" opacity="0.1" d="M505.54 449.55C489.54 441.82 450.48 440.99 450.48 440.99L450.06 437.1L503.48 432.99L506.48 443.99C506.48 443.99 507.15 446.14 505.54 449.55Z" fill="black"/>
<path id="Vector_9" d="M450.48 438.99C450.48 438.99 497.48 439.99 509.48 449.99L503.48 328.99H438.48L450.48 438.99Z" fill="#ABB1D1"/>
<path id="Vector_10" d="M488.24 364.95C488.24 364.95 605.89 360.95 608.29 376.16C610.69 391.37 490.64 384.96 490.64 384.96C490.64 384.96 481.04 375.35 488.24 364.95Z" fill="#535461"/>
<path id="Vector_11" opacity="0.05" d="M488.24 364.95C488.24 364.95 605.89 360.95 608.29 376.16C610.69 391.37 490.64 384.96 490.64 384.96C490.64 384.96 481.04 375.35 488.24 364.95Z" fill="black"/>
<path id="Vector_12" d="M393 425.78H372.19V606.66H393V425.78Z" fill="#5F5F67"/>
<path id="Vector_13" d="M387.4 475.4L605.9 407.37L613.1 424.18L389 501.01L387.4 475.4Z" fill="#474656"/>
<path id="Vector_14" opacity="0.1" d="M393 425.77V439.7C386.08 440.6 379 441.17 372.19 441.39V425.77H393Z" fill="black"/>
<path id="Vector_15" d="M452.23 582.65L609.9 427.38L618.7 440.18L468.23 597.05L452.23 582.65Z" fill="#505055"/>
<path id="Vector_16" d="M391.44 410.78C388.52 410.554 385.616 410.164 382.74 409.61C371.46 407.45 343.02 402.92 335.37 410.61C325.77 420.21 328.97 437.02 354.58 439.42C380.19 441.82 424.21 435.42 433.02 425.81C433.02 425.77 417.09 412.75 391.44 410.78Z" fill="#535461"/>
<path id="Vector_17" opacity="0.1" d="M653.58 529.85C648.584 531.142 643.712 532.872 639.02 535.02L629.46 508.31C634.477 506.123 639.644 504.295 644.92 502.84L653.58 529.85Z" fill="black"/>
<path id="Vector_18" d="M680.33 608.26L669.13 614.66L590.99 396.33L587.49 386.56L605.9 376.15L610.51 390.53L680.33 608.26Z" fill="#4B4A56"/>
<path id="Vector_19" opacity="0.1" d="M610.51 390.53L590.99 396.33L587.49 386.56L605.9 376.15L610.51 390.53Z" fill="black"/>
<path id="Vector_20" d="M491.44 407.37L601.09 369.75C601.09 369.75 620.3 372.15 613.09 388.16L502.65 420.97C502.65 420.97 485.85 422.57 491.44 407.37Z" fill="#535461"/>
<path id="Vector_21" opacity="0.1" d="M367.79 615.86C367.789 621.994 367.314 628.119 366.37 634.18C356.77 633.49 346.85 632.49 337.13 631.49C339.289 619.599 339.021 607.394 336.34 595.61C345.81 593.61 355.48 591.7 364.92 589.97C366.833 598.467 367.795 607.15 367.79 615.86Z" fill="black"/>
<path id="Vector_22" opacity="0.1" d="M341.21 541.37L319.85 560.92C316.067 556.064 311.791 551.614 307.09 547.64L327.03 526.81C332.164 531.249 336.908 536.12 341.21 541.37Z" fill="black"/>
<path id="Vector_23" opacity="0.1" d="M393 585.38V606.65H372.19V588.65C379.39 587.4 386.39 586.29 393 585.38Z" fill="black"/>
<path id="Vector_24" d="M252.94 606.66L378.59 475.4L382.6 505.81L259.34 618.66L252.94 606.66Z" fill="#58585F"/>
<path id="Vector_25" opacity="0.1" d="M251.34 628.27C258.415 628.27 264.15 622.535 264.15 615.46C264.15 608.385 258.415 602.65 251.34 602.65C244.265 602.65 238.53 608.385 238.53 615.46C238.53 622.535 244.265 628.27 251.34 628.27Z" fill="black"/>
<path id="Vector_26" opacity="0.1" d="M448.22 628.27C462.364 628.27 473.83 616.804 473.83 602.66C473.83 588.516 462.364 577.05 448.22 577.05C434.076 577.05 422.61 588.516 422.61 602.66C422.61 616.804 434.076 628.27 448.22 628.27Z" fill="black"/>
<path id="Vector_27" d="M449.83 628.27C463.974 628.27 475.44 616.804 475.44 602.66C475.44 588.516 463.974 577.05 449.83 577.05C435.686 577.05 424.22 588.516 424.22 602.66C424.22 616.804 435.686 628.27 449.83 628.27Z" fill="#535461"/>
<path id="Vector_28" d="M565.48 246.99L563.1 277.1C562.826 280.914 562.876 284.744 563.25 288.55C563.56 291.92 563.25 297.82 559.95 306.82C555.713 318.317 553.523 330.467 553.48 342.72V376.99L530.48 372.99C530.48 372.99 531.48 324.99 527.48 316.99C523.48 308.99 530.48 237.99 530.48 237.99L565.48 246.99Z" fill="#DB8B8B"/>
<path id="Vector_29" d="M442.992 600.736L442.984 600.742C439.977 602.991 439.362 607.253 441.611 610.26L461.937 637.441C464.186 640.448 468.448 641.063 471.455 638.814L471.463 638.808C474.471 636.559 475.085 632.297 472.836 629.29L452.51 602.109C450.261 599.102 446 598.487 442.992 600.736Z" fill="#6C63FF"/>
<path id="Vector_30" opacity="0.05" d="M564.3 261.91L563.1 277.1C562.83 280.911 562.883 284.738 563.26 288.54C563.57 291.91 563.26 297.81 559.96 306.82C555.723 318.317 553.533 330.467 553.49 342.72V376.99L530.49 372.99C530.49 372.99 531.49 324.99 527.49 316.99C524.66 311.32 527.34 274.05 529.15 252.78C529.9 244.03 530.49 237.99 530.49 237.99L565.49 246.99L564.3 261.91Z" fill="black"/>
<path id="Vector_31" d="M489.48 424.99C478.846 430.653 468.797 437.352 459.48 444.99C443.48 457.99 403.48 458.99 403.48 458.99V443.99C404.48 425.99 387.48 405.99 364.48 349.99C349.79 314.23 353.86 293.99 358.72 283.99C361.48 278.34 364.48 275.99 364.48 275.99L489.48 299.99L493.95 313.39L503.48 341.99C503.48 341.99 468.48 343.99 462.48 346.99C456.48 349.99 460.48 376.99 460.48 376.99C454.48 404.99 489.48 424.99 489.48 424.99Z" fill="#ABB1D1"/>
<path id="Vector_32" d="M451.5 476.99L442.85 526.19C441.759 532.759 440.086 539.218 437.85 545.49C432.78 559.35 436.02 578.78 438.48 589.38C439.57 594.06 440.48 597.02 440.48 597.02L414.48 611.02L406.48 605.02V601.02L405.48 512.02C399.48 498.02 401.48 477.02 405.48 469.02C406.617 466.392 407.417 463.63 407.86 460.8C409.86 450.08 410.48 435.02 410.48 435.02C410.48 435.02 426.48 408.02 445.48 426.02C452.48 432.65 455.14 441.32 455.7 449.62C456.68 463.83 451.5 476.99 451.5 476.99Z" fill="#DB8B8B"/>
<path id="Vector_33" opacity="0.1" d="M565.48 246.99L564.3 261.91C546.9 266.91 534.48 250.99 534.48 250.99C532.665 251.477 530.882 252.074 529.14 252.78C529.89 244.03 530.48 237.99 530.48 237.99L565.48 246.99Z" fill="black"/>
<path id="Vector_34" d="M578.96 207.94C576.35 228.29 575.48 253.94 575.48 253.94C552.48 271.94 534.48 248.94 534.48 248.94C512.76 254.77 502.55 273.78 497.74 290.37C495.164 299.344 493.732 308.607 493.48 317.94C493.48 317.94 487.4 322.94 476.2 323.94C465.61 324.83 450.43 322.07 431.48 307.94C392.48 278.94 357.48 286.94 357.48 286.94C357.48 286.94 364.48 246.94 380.48 234.94C396.48 222.94 408.48 207.94 428.48 161.94C448.48 115.94 489.48 126.94 489.48 126.94C489.48 126.94 491.48 117.94 528.48 126.94C537.492 129.302 545.834 133.721 552.85 139.85C572.64 156.49 582.24 182.3 578.96 207.94Z" fill="white"/>
<path id="Vector_35" opacity="0.05" d="M497.74 290.42C495.164 299.394 493.732 308.657 493.48 317.99C493.48 317.99 487.4 322.99 476.2 323.99C475.884 323.353 475.643 322.682 475.48 321.99C473.48 312.99 458.48 296.99 458.48 296.99C448.48 287.99 446.48 271.99 446.48 271.99L429.98 223.49L424.48 218.99C424.48 218.99 447.48 200.99 467.48 215.99C487.48 230.99 481.48 262.99 481.48 262.99L485.48 273.99C489.63 277.49 493.85 283.66 497.74 290.42Z" fill="black"/>
<path id="Vector_36" d="M427.48 217.99L449.48 270.99C449.48 270.99 451.48 286.99 461.48 295.99C461.48 295.99 476.48 311.99 478.48 320.99C480.48 329.99 508.48 353.99 508.48 353.99C508.48 353.99 534.48 377.99 536.48 386.99C536.48 386.99 560.48 393.99 557.48 407.99C557.48 407.99 575.48 389.99 557.48 372.99C539.48 355.99 515.48 320.99 515.48 320.99C515.48 320.99 501.48 283.99 488.48 272.99L484.48 261.99C484.48 261.99 490.48 229.99 470.48 214.99C450.48 199.99 427.48 217.99 427.48 217.99Z" fill="#DB8B8B"/>
<path id="Vector_37" d="M541.85 149.49C541.8 150.82 541.69 152.3 541.51 153.95C539.51 171.95 537.51 169.95 515.51 173.95C501.83 176.44 494.72 165.01 491.3 156.01C490.062 152.75 489.128 149.382 488.51 145.95L536.51 137.95C536.51 137.95 542.26 136.34 541.85 149.49Z" fill="#DB8B8B"/>
<path id="Vector_38" opacity="0.1" d="M440.48 596.99L414.48 610.99L406.48 604.99V600.99C415.464 600.352 424.193 597.718 432.03 593.28C434.43 591.92 436.69 590.58 438.5 589.4C439.55 594.03 440.48 596.99 440.48 596.99Z" fill="black"/>
<path id="Vector_39" d="M548.48 126.99C548.48 136.273 544.793 145.175 538.229 151.739C531.665 158.303 522.763 161.99 513.48 161.99C504.197 161.99 495.295 158.303 488.731 151.739C482.168 145.175 478.48 136.273 478.48 126.99C478.48 126.41 478.48 125.83 478.48 125.25C478.711 115.967 482.62 107.157 489.346 100.756C496.073 94.3555 505.067 90.8893 514.35 91.12C523.633 91.3508 532.443 95.2595 538.844 101.986C545.245 108.713 548.711 117.707 548.48 126.99Z" fill="#DB8B8B"/>
<path id="Vector_40" opacity="0.1" d="M470.48 175.99L484.48 230.99C484.48 230.99 441.48 237.99 432.48 230.99C423.48 223.99 406.48 221.99 406.48 221.99C406.48 221.99 424.48 169.99 434.48 163.99C444.48 157.99 470.48 175.99 470.48 175.99Z" fill="black"/>
<path id="Vector_41" d="M470.48 173.99L484.48 228.99C484.48 228.99 441.48 235.99 432.48 228.99C423.48 221.99 406.48 219.99 406.48 219.99C406.48 219.99 424.48 167.99 434.48 161.99C444.48 155.99 470.48 173.99 470.48 173.99Z" fill="white"/>
<path id="Vector_42" d="M482.98 630.49H422.98V649.49H482.98V630.49Z" fill="#5C5B6C"/>
<path id="Vector_43" opacity="0.1" d="M548.48 126.99C548.483 130.216 548.039 133.426 547.16 136.53C544.455 137.12 541.633 136.861 539.08 135.79C535.34 134.32 532.13 131.79 528.54 129.97C518.43 124.85 506.4 125.86 495.2 127.55C489.64 128.39 483.33 129.17 478.96 125.63C478.81 125.511 478.666 125.385 478.53 125.25C478.761 115.967 482.67 107.157 489.396 100.756C496.123 94.3555 505.117 90.8893 514.4 91.12C523.683 91.3508 532.493 95.2595 538.894 101.986C545.295 108.713 548.761 117.707 548.53 126.99H548.48Z" fill="black"/>
<path id="Vector_44" opacity="0.05" d="M384.98 234.49C384.98 234.49 410.98 241.49 418.98 259.49C426.98 277.49 448.62 280.78 448.62 280.78" fill="black"/>
<path id="Vector_45" d="M431.641 594.38C437.029 591.737 441.756 589.093 442.167 588C442.167 588 455.764 600.602 467.877 604.515C471.949 605.836 475.848 607.538 479.507 609.591C484.304 612.235 491.147 615.346 497.359 615.346C497.359 615.346 511.408 625.921 484.314 627.683C457.22 629.446 394 623.277 394 623.277L398.014 601.245C409.742 601.849 421.419 599.465 431.641 594.38Z" fill="#ABB1D1"/>
</g>
<g id="hat">
<path id="Vector_46" d="M453.16 105.34C455.29 112.02 465.52 112.23 470.77 117.15C473.5 119.71 474.77 123.49 477.77 125.77C481.94 128.95 487.96 128.25 493.27 127.49C503.96 125.97 515.44 125.06 525.08 129.67C528.5 131.3 531.57 133.58 535.14 134.91C538.71 136.24 543.14 136.4 546.04 134.04C548.36 132.15 549.21 129.04 551.31 126.96C552.94 125.32 555.21 124.4 557.07 122.96C561.15 119.88 562.91 114.86 564.07 110.06C566.47 100.18 567.16 89.53 563.07 80.16C558.98 70.79 549.14 63.16 538.4 63.65C535.11 63.8 531.9 64.65 528.62 65.01C520.07 65.88 511.62 63.01 503.04 62.52C500.551 62.2172 498.027 62.5616 495.71 63.52C493.963 64.4908 492.457 65.8406 491.3 67.47C487.372 72.6154 484.682 78.5969 483.44 84.95C482.44 89.74 482.39 94.08 476.52 94.82C469.85 95.7 448.65 91.21 453.16 105.34Z" fill="#472727"/>
</g>
<g id="right_wheel">
<path id="Vector_47" d="M687.37 720.03L681.11 622.13L680.98 621.92L674.66 624.12L645.57 708.93L599.32 676.13L673.01 622.72L673.08 622.51L673.5 622.36L678.25 618.91L601.01 575.6L582.08 596.4L585.08 615.9L673.88 617.48V619.48L583.4 617.86L580 595.75L605.89 567.3L644.61 522.13L645.3 524L653.5 515L684.04 520.47V519.26L686.04 519.32V520.83L731.4 528.95L689.07 613.6L682.9 618.07V618.57V619.13L780.71 585.05L769.1 676.26L686.1 623.39L683.18 621.75L732.12 700.64L687.37 720.03ZM683.37 625.69L689.22 717.07L729.27 699.69L683.37 625.69ZM602.8 676.13L644.59 705.76L671.93 626.02L602.8 676.13ZM685.12 620.47L687.21 621.64L767.56 672.84L778.36 587.97L685.12 620.47ZM678.02 613.27L680.53 617.32L680.97 617L683.97 522.47L654.23 517.13L646.07 526.13L678.02 613.27ZM602.63 574.22L677.47 616.22L676.17 614.09L644.59 527.82L607.39 568.7L602.63 574.22ZM686 522.83L683 615.52L687.52 612.24L728.43 530.42L686 522.83Z" fill="#535461"/>
<path id="Vector_48" d="M679.747 500C669.134 499.988 658.568 501.415 648.337 504.24C643.061 505.695 637.904 507.523 632.887 509.71C606.157 521.297 584.674 542.387 572.594 568.898C560.514 595.41 558.696 625.459 567.492 653.233C576.287 681.008 595.071 704.533 620.209 719.259C645.348 733.984 675.054 738.863 703.582 732.952C732.109 727.04 757.431 710.759 774.648 687.257C791.865 663.755 799.754 634.702 796.789 605.72C793.823 576.738 780.215 549.885 758.595 530.356C736.975 510.828 708.881 500.012 679.747 500ZM679.357 706.09C659.076 706.082 639.408 699.137 623.62 686.407C607.831 673.678 596.872 655.931 592.562 636.113C588.252 616.295 590.851 595.6 599.928 577.463C609.004 559.326 624.011 544.84 642.457 536.41C647.149 534.262 652.021 532.532 657.017 531.24C669.229 528.07 681.977 527.537 694.411 529.677C706.845 531.817 718.68 536.581 729.13 543.651C739.58 550.722 748.404 559.937 755.015 570.683C761.627 581.429 765.873 593.46 767.473 605.975C769.073 618.49 767.989 631.202 764.293 643.265C760.597 655.329 754.375 666.467 746.04 675.939C737.704 685.41 727.447 692.998 715.951 698.197C704.455 703.395 691.984 706.086 679.367 706.09H679.357Z" fill="#535461"/>
<path id="Vector_49" d="M679.81 630.62C686.885 630.62 692.62 624.885 692.62 617.81C692.62 610.735 686.885 605 679.81 605C672.735 605 667 610.735 667 617.81C667 624.885 672.735 630.62 679.81 630.62Z" fill="#535461"/>
</g>
<g id="left_wheel">
<path id="Vector_50" d="M258.725 715.778L252.455 617.838L252.325 617.628L246.005 619.828L216.925 704.678L170.675 671.888L244.345 618.478L244.415 618.268L244.835 618.118L249.585 614.668L172.345 571.358L153.425 592.158L156.425 611.658L245.245 613.278V615.278L154.765 613.658L151.345 591.518L177.245 563.058L215.995 517.858L216.685 519.728L224.885 510.728L255.345 516.188V514.978L257.345 515.038V516.548L302.705 524.668L260.415 609.278L254.245 613.748V614.248V614.808L352.045 580.728L340.435 671.938L257.435 619.068L254.515 617.428L303.455 696.308L258.725 715.778ZM254.725 621.438L260.575 712.818L300.625 695.438L254.725 621.438ZM174.145 671.868L215.935 701.498L243.275 621.758L174.145 671.868ZM256.465 616.208L258.555 617.378L338.905 668.578L349.705 583.708L256.465 616.208ZM249.365 609.008L251.875 613.058L252.315 612.738L255.315 518.208L225.575 512.888L217.415 521.888L249.365 609.008ZM173.945 569.948L248.785 611.948L247.485 609.818L215.905 523.548L178.715 564.418L173.945 569.948ZM257.345 518.558L254.345 611.278L258.865 607.998L299.775 526.178L257.345 518.558Z" fill="#535461"/>
<path id="Vector_51" d="M368.415 588.738C364.405 570.919 356.285 554.283 344.705 540.158C340.406 534.909 335.666 530.038 330.535 525.598C310.809 508.567 285.986 498.568 259.962 497.17C233.938 495.771 208.187 503.053 186.749 517.873C165.311 532.693 149.401 554.211 141.515 579.05C133.629 603.89 134.214 630.645 143.178 655.116C152.142 679.587 168.978 700.39 191.042 714.258C213.107 728.127 239.152 734.277 265.09 731.743C291.028 729.208 315.39 718.134 334.353 700.257C353.317 682.379 365.807 658.712 369.865 632.968C370.809 626.907 371.284 620.783 371.285 614.648C371.292 605.932 370.329 597.242 368.415 588.738ZM253.225 703.088C234.993 703.069 217.209 697.435 202.292 686.953C187.374 676.47 176.047 661.648 169.851 644.501C163.655 627.354 162.89 608.715 167.66 591.118C172.43 573.521 182.505 557.82 196.513 546.15C210.521 534.48 227.783 527.408 245.953 525.895C264.122 524.381 282.316 528.501 298.062 537.693C313.807 546.884 326.34 560.703 333.956 577.268C341.571 593.834 343.9 612.343 340.625 630.278C336.875 650.722 326.076 669.203 310.107 682.506C294.137 695.809 274.01 703.093 253.225 703.088Z" fill="#535461"/>
<path id="Vector_52" d="M253.225 627.058C260.3 627.058 266.035 621.323 266.035 614.248C266.035 607.174 260.3 601.438 253.225 601.438C246.15 601.438 240.415 607.174 240.415 614.248C240.415 621.323 246.15 627.058 253.225 627.058Z" fill="#535461"/>
</g>
</g>
<defs>
<linearGradient id="paint0_linear" x1="754.178" y1="-8.93149" x2="154.578" y2="704.296" gradientUnits="userSpaceOnUse">
<stop stop-color="#477B7B"/>
<stop offset="1" stop-color="#19A9D7"/>
</linearGradient>
</defs>
</svg>
